<svg width="40" height="48" viewBox="0 0 40 48" fill="none" xmlns="http://www.w3.org/2000/svg">
<path d="M39.6706 22.7009L28.2459 17.0952C28.7244 14.722 28.5915 12.2661 27.8594 9.95843C27.1274 7.65081 25.8204 5.56732 24.0614 3.90395C21.1697 1.17302 17.3748 -0.20398 13.3702 0.0244727C9.849 0.262786 6.53984 1.79313 4.07782 4.3218C2.21695 6.21047 0.92308 8.58317 0.34319 11.1704C-0.236699 13.7576 -0.0793557 16.4556 0.797344 18.9578C1.55644 21.1268 2.82559 23.0817 4.49793 24.6578C5.46418 25.5859 6.1954 26.7309 6.63101 27.9979C7.06663 29.2648 7.1941 30.6174 7.00287 31.9434L6.85567 33.0686C6.83421 33.185 6.83727 33.3045 6.86465 33.4196C6.89203 33.5347 6.94313 33.6428 7.01469 33.737C7.08625 33.8312 7.17668 33.9095 7.2802 33.9667C7.38373 34.024 7.49807 34.059 7.6159 34.0696V39.8139C7.61561 40.2529 7.70232 40.6876 7.87102 41.093C8.03971 41.4983 8.28706 41.8662 8.59875 42.1754C8.91045 42.4845 9.28032 42.7289 9.68699 42.8943C10.0937 43.0597 10.5291 43.1429 10.9681 43.1391H17.5617C18.3612 43.1468 19.1371 42.8678 19.7485 42.3526L27.2918 47.5019C27.3892 47.5699 27.5046 47.6073 27.6234 47.609C27.7414 47.6099 27.857 47.5751 27.9549 47.5092L35.8134 42.1564C38.1611 40.5572 40 37.0843 40 34.2474V23.2295C40 23.1194 39.9691 23.0115 39.9109 22.9181C39.8527 22.8246 39.7694 22.7494 39.6706 22.7009ZM5.30694 23.802C3.93931 22.5165 2.86383 20.9522 2.15328 19.215C1.44274 17.4777 1.11372 15.6081 1.1885 13.7326C1.42952 7.14008 6.81416 1.63503 13.4424 1.19991C15.4647 1.07478 17.4883 1.42048 19.3543 2.20981C21.2204 2.99915 22.8778 4.2106 24.1964 5.7489C25.515 7.2872 26.4587 9.11042 26.9534 11.0752C27.4482 13.0399 27.4803 15.0927 27.0475 17.072L15.5888 22.6842C15.4912 22.7333 15.4095 22.809 15.3532 22.9026C15.2969 22.9962 15.2682 23.1038 15.2706 23.213V32.9333H8.06594L8.16976 32.1195C8.38611 30.6054 8.23934 29.0616 7.74158 27.6154C7.24381 26.1693 6.40932 24.8622 5.30694 23.802ZM8.79379 34.1109H15.2706V34.2474C15.2744 35.2755 15.469 36.294 15.8446 37.2511H8.79379V34.1109ZM10.9681 41.9615C10.6838 41.9655 10.4014 41.9128 10.1376 41.8067C9.87378 41.7005 9.63371 41.5429 9.43136 41.3431C9.22902 41.1432 9.06844 40.9051 8.95898 40.6427C8.84953 40.3802 8.79337 40.0985 8.79379 39.8142V38.4287H16.3598C16.9502 39.6334 17.7674 40.713 18.7666 41.6082C18.4083 41.8416 17.9893 41.9645 17.5617 41.9615H10.9681ZM38.8224 34.2474C38.8224 36.6932 37.1752 39.8051 35.1505 41.1844L27.6237 46.3126L20.0969 41.1843C19.0034 40.4395 17.9823 39.1388 17.2745 37.6158C16.7348 36.4531 16.4485 35.257 16.4485 34.2474V23.5804L27.6357 18.1012L38.8228 23.5966L38.8224 34.2474Z" fill="white" fill-opacity="0.75"/>
</svg>
