<svg width="50" height="60" viewBox="0 0 50 60" fill="none" xmlns="http://www.w3.org/2000/svg">
<path opacity="0.75" d="M49.5882 28.3761L35.3073 21.3689C35.9055 18.4025 35.7393 15.3326 34.8243 12.448C33.9093 9.56351 32.2755 6.95915 30.0767 4.87994C26.4621 1.46627 21.7185 -0.254975 16.7128 0.0305909C12.3112 0.328483 8.1748 2.24141 5.09728 5.40225C2.77119 7.76308 1.15385 10.729 0.428988 13.963C-0.295873 17.197 -0.0991946 20.5694 0.99668 23.6973C1.94555 26.4085 3.53199 28.8521 5.62241 30.8223C6.83023 31.9824 7.74425 33.4136 8.28877 34.9973C8.83328 36.581 8.99262 38.2717 8.75358 39.9293L8.56958 41.3358C8.54276 41.4812 8.54658 41.6306 8.58081 41.7745C8.61504 41.9184 8.67892 42.0535 8.76836 42.1713C8.85781 42.289 8.97085 42.3868 9.10026 42.4584C9.22966 42.53 9.37258 42.5738 9.51988 42.587V49.7673C9.51952 50.3161 9.6279 50.8595 9.83877 51.3662C10.0496 51.8729 10.3588 52.3327 10.7484 52.7192C11.1381 53.1057 11.6004 53.4111 12.1087 53.6179C12.6171 53.8247 13.1614 53.9287 13.7101 53.9239H21.9521C22.9515 53.9335 23.9213 53.5847 24.6857 52.9407L34.1148 59.3774C34.2364 59.4624 34.3808 59.5091 34.5293 59.5113C34.6768 59.5124 34.8212 59.4689 34.9436 59.3865L44.7667 52.6955C47.7014 50.6965 50 46.3554 50 42.8092V29.0369C50 28.8993 49.9614 28.7644 49.8886 28.6476C49.8159 28.5308 49.7118 28.4367 49.5882 28.3761ZM6.63367 29.7525C4.92414 28.1457 3.57978 26.1903 2.6916 24.0187C1.80342 21.8471 1.39215 19.5101 1.48563 17.1658C1.78689 8.9251 8.5177 2.04378 16.803 1.49988C19.3308 1.34348 21.8604 1.7756 24.1929 2.76227C26.5254 3.74894 28.5973 5.26325 30.2455 7.18612C31.8937 9.109 33.0734 11.388 33.6918 13.844C34.3102 16.2999 34.3504 18.8659 33.8093 21.34L19.486 28.3553C19.364 28.4166 19.2619 28.5112 19.1915 28.6282C19.1211 28.7452 19.0853 28.8798 19.0882 29.0163V41.1666H10.0824L10.2122 40.1493C10.4826 38.2568 10.2992 36.327 9.67697 34.5193C9.05476 32.7116 8.01164 31.0777 6.63367 29.7525ZM10.9922 42.6386H19.0882V42.8092C19.093 44.0944 19.3363 45.3675 19.8058 46.5639H10.9922V42.6386ZM13.7101 52.4519C13.3547 52.4568 13.0018 52.391 12.672 52.2583C12.3422 52.1256 12.0421 51.9286 11.7892 51.6788C11.5363 51.429 11.3356 51.1314 11.1987 50.8033C11.0619 50.4752 10.9917 50.1232 10.9922 49.7677V48.0359H20.4498C21.1877 49.5418 22.2092 50.8912 23.4583 52.0103C23.0104 52.302 22.4866 52.4556 21.9521 52.4519H13.7101ZM48.528 42.8092C48.528 45.8666 46.4689 49.7564 43.9381 51.4805L34.5296 57.8908L25.1211 51.4804C23.7543 50.5493 22.4778 48.9235 21.5931 47.0197C20.9185 45.5664 20.5607 44.0712 20.5607 42.8092V29.4754L34.5446 22.6265L48.5285 29.4958L48.528 42.8092Z" fill="#3D3D3D"/>
</svg>
